<svg xmlns="http://www.w3.org/2000/svg" width="871.43778" height="624.90215" viewBox="0 0 871.43778 624.90215" xmlns:xlink="http://www.w3.org/1999/xlink" role="img" artist="Katerina Limpitsouni"><path d="m856.29309,531.10893H53.05113c-7.6564,0-13.88583-8.6938-13.88583-19.37909V20.12909c0-10.68529,6.22943-19.37909,13.88583-19.37909h803.24196c7.6564,0,13.88583,8.6938,13.88583,19.37909v491.60075c0,10.68529-6.22943,19.37909-13.88583,19.37909Z" fill="#fff" stroke="#231f20" stroke-miterlimit="10" stroke-width="1.5"/><circle cx="88.42585" cy="35.90688" r="13.02818" fill="#fff" stroke="#231f20" stroke-miterlimit="10" stroke-width="1.5"/><circle cx="132.5584" cy="35.90688" r="13.02818" fill="#fff" stroke="#231f20" stroke-miterlimit="10" stroke-width="1.5"/><circle cx="176.69096" cy="35.90688" r="13.02818" fill="#fff" stroke="#231f20" stroke-miterlimit="10" stroke-width="1.5"/><line x1="40.42416" y1="63.7025" x2="871.43778" y2="63.7025" fill="#fff" stroke="#231f20" stroke-miterlimit="10" stroke-width="1.5"/><g><polyline points="840.86008 623.40592 774.02021 623.40592 753.45977 623.40592 748.99215 623.40592 734.9319 623.40592 727.66699 623.40592 708.41464 623.40592 701.0424 623.40592 640.50147 623.40592 557.63587 623.40592" fill="none" stroke="#231f20" stroke-miterlimit="10" stroke-width="1.5"/><g><path d="m700.44783,448.23832l19.72815,5.30368,3.09664-11.51861-19.72815-5.30368c-1.47484-2.65342-4.24088-4.84544-7.75543-5.79029-6.14954-1.65323-12.24378,1.13221-13.61197,6.22147-1.36819,5.08926,2.5078,10.55508,8.65734,12.20831,3.51455.94484,7.0069.43522,9.61341-1.12088Z" fill="#f3a980" stroke="#231f20" stroke-miterlimit="10" stroke-width="1.5"/><path d="m774.98139,394.16395l.00002.00002c2.23343,2.12661,3.46797,5.0955,3.40092,8.17872l-3.50103,52.6161c-.41223,6.19524-5.95265,10.76677-12.11345,9.99508l-57.09899-12.07559-1.49821-22.64742,49.88585,8.69085,2.40314-36.56605c-.22377-9.75711,11.45367-14.92176,18.52176-8.19171Z" fill="#fff" stroke="#231f20" stroke-miterlimit="10" stroke-width="1.5"/></g><g><rect x="714.62138" y="525.28237" width="95.444" height="19.333" rx="9.66649" ry="9.66649" fill="#fff" stroke="#231f20" stroke-miterlimit="10" stroke-width="1.5"/><line x1="735.1441" y1="544.61536" x2="712.57126" y2="623.80829" fill="#fff" stroke="#231f20" stroke-miterlimit="10" stroke-width="1.5"/><line x1="789.54266" y1="544.61536" x2="812.11551" y2="623.80829" fill="#fff" stroke="#231f20" stroke-miterlimit="10" stroke-width="1.5"/></g><g><rect x="650.17546" y="594.50314" width="16.50741" height="18.06892" fill="#f5ab82" stroke="#231f20" stroke-miterlimit="10" stroke-width="1.5"/><path d="m653.20525,604.81755l-1.20687-2.85252c-.3405-.80479-1.29436-1.14899-2.0703-.74706l-21.78967,11.28673-7.85211,2.99128c-1.61119.61379-2.67594,2.1588-2.67594,3.88294h0c0,2.29484,1.86033,4.15516,4.15516,4.15516h48.33344c1.5268,0,2.65305-1.42589,2.29941-2.91117l-.978-4.10753c.33221-3.48315-.5145-7.56737-1.82547-11.88832-.38041-1.25384-1.60393-2.0568-2.9077-1.92642l-1.11573.11158c-2.5816,6.81716-6.71251,7.45063-12.36621,2.00534Z" fill="#231f20"/></g><path d="m799.73593,512.34481v.22142c-.10064,12.38319-9.69998,22.4856-21.8484,23.41804h-.02014c-.59699.047-1.20074.06715-1.8112.06715h-25.30978c-10.29026,0-20.55374-1.03308-30.63605-3.09252l-10.49153-2.8241-27.08746-7.28503-4.7829-1.28799-6.68799,82.08074h-22.75399s1.78435-65.57203,1.78435-98.13998c0-20.33911,35.01648-21.36548,61.31238-19.26575,15.81776,1.26105,28.476,3.64919,28.476,3.64919l16.73009-2.34113,16.06599-2.25401c4.37372,0,8.4992,1.03979,12.15514,2.87782,8.84132,4.45421,14.9055,13.61755,14.9055,24.17615Z" fill="#231f20"/><g><rect x="682.74057" y="594.52706" width="16.50741" height="18.06892" fill="#f5ab82" stroke="#231f20" stroke-miterlimit="10" stroke-width="1.5"/><path d="m685.77035,604.84146l-1.20687-2.85252c-.3405-.80479-1.29436-1.14899-2.0703-.74706l-21.78967,11.28673-7.85211,2.99128c-1.61119.61379-2.67594,2.1588-2.67594,3.88294h0c0,2.29484,1.86033,4.15516,4.15516,4.15516h48.33344c1.5268,0,2.65305-1.42589,2.29941-2.91117l-.978-4.10753c.33221-3.48315-.5145-7.56737-1.82547-11.88832-.38041-1.25384-1.60393-2.0568-2.9077-1.92642l-1.11573.11158c-2.5816,6.81716-6.71251,7.45063-12.36621,2.00534Z" fill="#231f20"/></g><path d="m799.73593,512.34481v.22142c-.10064,12.38319-9.69998,22.4856-21.8484,23.41804h-.02014c-8.46566-.30183-16.89108-1.30805-25.19576-3.00523l-42.35518-11.3904-.69763,8.54616-5.99708,73.53458h-22.75399s0-.08721.00671-.2482c.1006-3.70962,1.28124-47.87596,1.65689-80.57141.07378-6.33252.12074-12.229.12074-17.32709,0-12.30278,12.80585-17.53516,28.7511-19.28589,15.81776,1.26105,28.476,3.64919,28.476,3.64919l16.73009-2.34113c9.41153,1.14707,15.83794,2.36128,15.83794,2.36128l12.38319-1.73747c8.84132,4.45421,14.9055,13.61755,14.9055,24.17615Z" fill="#231f20"/><g><path d="m787.73781,362.50022c0-12.01943-9.7436-21.76303-21.76287-21.76303s-21.76279,9.7436-21.76279,21.76303c0,9.50837,6.10024,17.58716,14.59848,20.5498l-5.88535,14.92839h23.35351v-16.30625c6.82163-3.67419,11.45901-10.8807,11.45901-19.17194Z" fill="#f2a880" stroke="#231f20" stroke-miterlimit="10" stroke-width="1.5"/><path d="m776.27871,381.67266h.00002c11.26238-5.41304,17.02738-18.32911,13.11576-30.19677-1.0303-3.12589-2.46702-5.78909-4.46698-7.32465-7.94561-6.1006-34.54129-16.8243-40.23509,7.51209,0,0,11.98786-1.9673,12.18103.65987.19317,2.62717,3.65026,15.04515,3.65026,15.04515l4.56787,1.31878s8.90791-5.80279,10.69341,2.51629c1.7855,8.31908.49372,10.46924.49372,10.46924Z" fill="#231f20"/><path d="m752.37819,395.85275l2.38178-6.6552h22.47582l1.73692,3.26557s22.85517,59.71749,12.79489,99.52915l-64.92062-2.2696,25.53121-93.86991Z" fill="#231f20"/><path d="m790.66208,411.33241c-3.63629-14.82774-5.80012-25.34087-20.96057-23.53944l-5.43549.88818h0c-24.22518,18.70522-13.33962,80.83337-20.05387,110.6941l68.34555,23.74217-21.89562-111.78502Z" fill="#fff" stroke="#231f20" stroke-miterlimit="10" stroke-width="1.5"/></g><g><path d="m726.31643,481.43863l20.18843-3.12349-1.8237-11.78735-20.18843,3.12349c-2.42155-1.83082-5.83761-2.71768-9.43415-2.16123-6.29302.97363-10.74125,5.98479-9.93548,11.19279.80576,5.208,6.56039,8.64061,12.8534,7.66697,3.59654-.55645,6.58486-2.43426,8.33993-4.91118Z" fill="#f3a980" stroke="#231f20" stroke-miterlimit="10" stroke-width="1.5"/><path d="m779.04804,407.95685l18.06634,49.54108c2.12721,5.83318-1.09249,12.25414-7.03947,14.03864l-57.10743,12.0356-10.52495-20.1091,49.14167-12.21579-3.74228-10.23605" fill="#fff" stroke="#231f20" stroke-miterlimit="10" stroke-width="1.5"/></g><path d="m747.15378,490.33236c-.20128-.22814-.47625-.40255-.82509-.50311-.08713-.02686-.18113-.05372-.28169-.06715l-4.84325-.76466-2.83753-.44947-15.40873-2.43506-.38225-.06043c-.09401-.01343-.19456-.02006-.28857-.02006h-29.15353c-1.03308,0-1.98558-.60375-2.42826-1.52947l-3.05895-6.37944-24.7731-51.66608c-.32198-.67745-1.02636-1.09343-1.76432-1.05986l-32.48074,1.44218c-.63724.03357-1.18735.36227-1.51605.90566-.32869.5434-.36227,1.18735-.08721,1.75753l27.95283,59.01145c.26155.55675.77808.94587,1.38192,1.04643l13.14785,2.18686,2.83081.46962,16.6295,2.76375c.07386.01343.15427.02014.22814.02014l4.09858.17442h.13413l7.63394-.24828,27.51679-.89879,17.23988-.56354c1.17392-.03357,1.7509-.90558,1.80445-1.7441.02686-.48968-.11399-1.00622-.46954-1.38855Z" fill="#6c63ff" stroke="#231f20" stroke-miterlimit="10" stroke-width="1.5"/></g><g><polyline points="299.94856 624.15215 229.16181 624.15215 207.38728 624.15215 202.65585 624.15215 187.76534 624.15215 180.07144 624.15215 159.68224 624.15215 151.87467 624.15215 87.75881 624.15215 0 624.15215" fill="none" stroke="#231f20" stroke-miterlimit="10" stroke-width="1.5"/><g><rect x="73.21433" y="519.38826" width="101.07996" height="20.47461" rx="10.23729" ry="10.23729" transform="translate(247.50862 1059.25113) rotate(180)" fill="#fff" stroke="#231f20" stroke-miterlimit="10" stroke-width="1.5"/><line x1="152.5597" y1="539.86287" x2="176.46547" y2="623.73213" fill="#fff" stroke="#231f20" stroke-miterlimit="10" stroke-width="1.5"/><line x1="94.94891" y1="539.86287" x2="71.04314" y2="623.73213" fill="#fff" stroke="#231f20" stroke-miterlimit="10" stroke-width="1.5"/></g><g><rect x="225.06356" y="594.11737" width="17.48217" height="19.13588" transform="translate(467.60929 1207.37062) rotate(-180)" fill="#f5ab82" stroke="#231f20" stroke-miterlimit="10" stroke-width="1.5"/><path d="m239.33704,605.04083l1.27814-3.02097c.36061-.85231,1.37079-1.21684,2.19255-.79118l23.07634,11.95321,8.31577,3.16791c1.70633.65003,2.83395,2.28628,2.83395,4.11223h0c0,2.43035-1.97018,4.40052-4.40052,4.40052h-51.18753c-1.61696,0-2.80971-1.51009-2.43519-3.08308l1.03575-4.35008c-.35183-3.68882.54489-8.01422,1.93326-12.59032.40288-1.32788,1.69864-2.17825,3.0794-2.04017l1.18162.11816c2.73404,7.21971,7.10888,7.89059,13.09644,2.12375Z" fill="#231f20"/></g><path d="m84.15373,505.68674v.2345c.10658,13.11442,10.27276,23.81338,23.13855,24.80088h.02133c.63225.04978,1.27165.07111,1.91816.07111h26.80432c10.8979,0,21.76743-1.09408,32.4451-3.27514l11.11106-2.99086,28.68697-7.71521,5.06533-1.36405,7.08292,86.9276h24.09761s-1.88971-69.44405-1.88971-103.93513c0-21.54014-37.0842-22.62711-64.93287-20.40339-16.75179,1.33552-30.15751,3.86467-30.15751,3.86467l-17.718-2.47938-17.01469-2.3871c-4.63199,0-9.00107,1.10119-12.8729,3.04775-9.3634,4.71723-15.78567,14.42166-15.78567,25.60375Z" fill="#231f20"/><g><rect x="190.5755" y="594.1427" width="17.48217" height="19.13588" transform="translate(398.63316 1207.42127) rotate(-180)" fill="#f5ab82" stroke="#231f20" stroke-miterlimit="10" stroke-width="1.5"/><path d="m204.84897,605.06616l1.27814-3.02097c.36061-.85231,1.37079-1.21684,2.19255-.79118l23.07634,11.95321,8.31577,3.16791c1.70633.65003,2.83395,2.28628,2.83395,4.11223h0c0,2.43035-1.97018,4.40052-4.40052,4.40052h-51.18753c-1.61696,0-2.80971-1.51009-2.43519-3.08308l1.03575-4.35008c-.35183-3.68882.54489-8.01422,1.93326-12.59032.40288-1.32788,1.69864-2.17825,3.0794-2.04017l1.18162.11816c2.73404,7.21971,7.10888,7.89059,13.09644,2.12375Z" fill="#231f20"/></g><path d="m84.15373,505.68674v.2345c.10658,13.11442,10.27276,23.81338,23.13855,24.80088h.02133c8.96556-.31966,17.8885-1.38529,26.68356-3.18269l44.85625-12.063.73883,9.05081,6.3512,77.87679h24.09761s0-.09236-.00711-.26285c-.10654-3.92867-1.35689-50.70303-1.75473-85.32914-.07814-6.70646-.12787-12.95112-.12787-18.35025,0-13.02926-13.56203-18.57061-30.44885-20.42472-16.75179,1.33552-30.15751,3.86467-30.15751,3.86467l-17.718-2.47938c-9.96728,1.2148-16.77317,2.50071-16.77317,2.50071l-13.11442-1.84006c-9.3634,4.71723-15.78567,14.42166-15.78567,25.60375Z" fill="#231f20"/><g><g><path d="m177.09175,455.46476l-19.58736,5.26583-3.07454-11.43641,19.58736-5.26583c1.46431-2.63449,4.21062-4.81086,7.70008-5.74896,6.10565-1.64143,12.1564,1.12413,13.51483,6.17707,1.35842,5.05294-2.48991,10.47975-8.59556,12.12118-3.48946.9381-6.95689.43211-9.54481-1.11288Z" fill="#f3a980" stroke="#231f20" stroke-miterlimit="10" stroke-width="1.5"/><path d="m103.09012,401.77631l-.00002.00002c-2.21749,2.11144-3.44322,5.05914-3.37664,8.12035l3.47604,52.2406c.40928,6.15103,5.91017,10.68993,12.027,9.92375l56.69149-11.98941,1.48752-22.48579-49.52983,8.62882-2.38599-36.30508c.22218-9.68748-11.37193-14.81526-18.38957-8.13325Z" fill="#fff" stroke="#231f20" stroke-miterlimit="10" stroke-width="1.5"/></g><path d="m132.01848,363.75616c0-11.55288-9.36554-20.91797-20.91797-20.91797-11.55288,0-20.91842,9.36509-20.91842,20.91797,0,7.96939,4.45771,14.89627,11.01435,18.4277v15.67355h22.44695l-5.65684-14.34899c8.1682-2.84772,14.03193-10.61291,14.03193-19.75227Z" fill="#f3a980" stroke="#231f20" stroke-miterlimit="10" stroke-width="1.5"/><path d="m119.68602,385.33452h-18.34343c-5.08102-.00003-4.17891,6.9447-4.17891,6.9447l-13.57074,102.77595,66.42458-9.49366s-26.44401-100.22702-30.3315-100.22699Z" fill="#fff" stroke="#231f20" stroke-miterlimit="10" stroke-width="1.5"/><g><path d="m102.46305,522.49572l.00002-20.28284h-11.84247s-.00002,20.28283-.00002,20.28283c-2.16399,2.09807-3.55275,5.31523-3.55275,8.92859,0,6.32244,4.24161,11.44773,9.47397,11.44773,5.23235,0,9.47398-5.12527,9.47399-11.44772,0-3.61336-1.38884-6.83053-3.55273-8.9286Z" fill="#f3a980" stroke="#231f20" stroke-miterlimit="10" stroke-width="1.5"/><path d="m113.01805,441.21708l-5.59859,79.59946h-20.56194s.00007-115.887.00007-115.887c0-7.91901,6.566-19.59503,14.48501-19.59502h0" fill="#fff" stroke="#231f20" stroke-miterlimit="10" stroke-width="1.5"/></g><path d="m81.18798,373.63748s1.01429,7.36091,10.30521,7.86547l9.29092.50456s-5.10089-23.04161,1.4574-18.66875c6.55829,4.37286,24.04708-13.95952,24.04708-13.95952l5.16034,9.67818s12.32844-4.46438-1.33467-15.39653c0,0-16.30206-12.60348-33.60867-5.03506-17.30661,7.56841-15.3176,35.01166-15.3176,35.01166Z" fill="#231f20"/></g><path d="m129.44329,482.55988c.05672.88803.66776,1.81153,1.911,1.84709l18.25789.59682,29.14165.95186,8.08473.26294h.14205s4.3406-.18472,4.3406-.18472c.07822,0,.16338-.00711.24161-.02133l17.61146-2.92695,2.99797-.49735,13.92423-2.31599c.63949-.10649,1.18653-.5186,1.46352-1.10822l29.60344-62.49607c.2913-.60384.25574-1.28582-.09236-1.86131-.3481-.57549-.9307-.92359-1.60557-.95914l-34.39873-1.52734c-.78154-.03556-1.52752.40499-1.86851,1.12244l-26.23595,54.71695-3.23958,6.75615c-.46882.98039-1.47757,1.61979-2.57165,1.61979h-30.87505c-.09956,0-.20605.00702-.30561.02125l-.40482.064-16.31862,2.57885-3.00508.47602-5.12925.80981c-.10649.01422-.20605.04267-.29832.07111-.36943.10649-.66065.29121-.87381.53282-.37655.4049-.52571.95195-.49726,1.47054Z" fill="#6c63ff" stroke="#231f20" stroke-miterlimit="10" stroke-width="1.5"/></g><g><path d="m535.33975,266.46001h-161.33527c-8.81596,0-15.98814-7.17218-15.98814-15.98814v-97.85988c0-8.81596,7.17218-15.98814,15.98814-15.98814h161.33527c8.81596,0,15.98814,7.17218,15.98814,15.98814v97.85988c0,8.81596-7.17218,15.98814-15.98814,15.98814Z" fill="#6c63ff" stroke="#231f20" stroke-miterlimit="10" stroke-width="1.5"/><path d="m535.33975,405.46311h-161.33527c-8.81596,0-15.98814-7.17218-15.98814-15.98814v-97.8605c0-8.81596,7.17218-15.98814,15.98814-15.98814h161.33527c8.81596,0,15.98814,7.17218,15.98814,15.98814v97.8605c0,8.81596-7.17218,15.98814-15.98814,15.98814Z" fill="#fff" stroke="#231f20" stroke-miterlimit="10" stroke-width="1.5"/><path d="m535.33975,466.52779h-161.33527c-8.81596,0-15.98814-7.17218-15.98814-15.98814v-18.31516c0-8.81596,7.17218-15.98814,15.98814-15.98814h161.33527c8.81596,0,15.98814,7.17218,15.98814,15.98814v18.31516c0,8.81596-7.17218,15.98814-15.98814,15.98814Z" fill="#fff" stroke="#231f20" stroke-miterlimit="10" stroke-width="1.5"/></g></svg>