<svg class="spinner" xmlns="http://www.w3.org/2000/svg" width="80" height="80" viewBox="0 0 80 80" fill="none">
    <style type="text/css">
        .spinner {
        animation: spin 1s linear infinite;
        }

        @keyframes spin {
        0% {
        transform: rotate(0deg);
        }
        100% {
        transform: rotate(360deg);
        }
        }
    </style>
  <path d="M31.6351 79.1873L31.6271 79.1853H31.6261L31.6351 79.1873Z" fill="#919191"/>
  <path d="M79.1827 31.6287V31.6257C78.6461 29.0023 77.8539 26.4705 76.8331 24.0585C75.8133 21.6475 74.566 19.3583 73.1205 17.2171V17.2161C71.6739 15.0749 70.0269 13.0806 68.2069 11.2605C66.3868 9.44047 64.3925 7.79354 62.2523 6.34694C60.1101 4.89933 57.8199 3.65206 55.4089 2.6333C52.9979 1.61353 50.4651 0.821276 47.8417 0.284716H47.8427C47.5196 0.218275 47.1944 0.155861 46.8683 0.0974734C43.1536 -0.565928 39.7329 2.27492 39.7329 6.04796C39.7329 8.97437 41.8329 11.473 44.714 11.9864C44.9505 12.0286 45.1851 12.0739 45.4197 12.1213H45.4207C47.2528 12.4957 49.0185 13.0484 50.7027 13.7611C52.3869 14.4739 53.9885 15.3456 55.4875 16.3584C56.9884 17.3721 58.3877 18.5278 59.6642 19.8042C60.9406 21.0807 62.0963 22.48 63.109 23.9789C64.1228 25.4809 64.9955 27.0825 65.7073 28.7657C66.419 30.4489 66.9717 32.2146 67.3471 34.0477C67.7216 35.8829 67.9199 37.7825 67.9199 39.7355C67.9199 41.6894 67.7216 43.588 67.3471 45.4232C66.9717 47.2554 66.419 49.0211 65.7073 50.7053C64.9955 52.3894 64.1228 53.9901 63.109 55.491C62.0953 56.991 60.9406 58.3903 59.6642 59.6667C58.3877 60.9432 56.9884 62.0989 55.4885 63.1116C53.9875 64.1253 52.3859 64.9971 50.7027 65.7098C49.0185 66.4226 47.2528 66.9742 45.4207 67.3497C43.5855 67.7242 41.6869 67.9225 39.7329 67.9225C37.78 67.9225 35.8804 67.7242 34.0462 67.3497C32.213 66.9742 30.4473 66.4215 28.7641 65.7098C28.6393 65.6575 28.5155 65.6031 28.3917 65.5488C25.6978 64.3629 22.5479 65.2266 20.901 67.6658C18.8 70.7775 20.008 75.0478 23.4408 76.5679C23.6452 76.6585 23.8505 76.7471 24.0569 76.8346C26.4679 77.8544 29.0007 78.6467 31.6241 79.1842L31.6281 79.1852C34.2485 79.7208 36.9615 80.0027 39.7329 80.0027C42.5053 80.0027 45.2183 79.7208 47.8397 79.1852L47.8427 79.1842C50.4651 78.6477 52.9969 77.8554 55.4079 76.8356C57.8199 75.8159 60.1091 74.5686 62.2503 73.122C64.3915 71.6754 66.3858 70.0295 68.2058 68.2084C70.0259 66.3873 71.6729 64.3941 73.1194 62.2529C74.565 60.1117 75.8133 57.8225 76.8331 55.4105C77.8529 52.9995 78.6451 50.4677 79.1817 47.8453L79.1827 47.8423C79.7182 45.2209 80.0001 42.5079 80.0001 39.7355C80.0001 36.9641 79.7182 34.2501 79.1827 31.6287Z" fill="#919191"/>
  <path d="M23.9774 16.3584C24.0892 16.2829 24.2019 16.2074 24.3157 16.1329C26.777 14.5212 27.7686 11.4096 26.623 8.70061C25.1593 5.24166 20.9181 3.92795 17.7723 5.97855C17.585 6.10036 17.3998 6.22318 17.2156 6.348H17.2146C15.0734 7.7946 13.0801 9.44153 11.2601 11.2616C11.1141 11.4076 10.9691 11.5546 10.8252 11.7035C8.21486 14.3944 8.69404 18.8026 11.7996 20.9016C14.2418 22.5515 17.4904 22.171 19.5481 20.061C19.6316 19.9754 19.7162 19.8899 19.8017 19.8043C21.0782 18.5278 22.4775 17.3722 23.9774 16.3584Z" fill="#919191"/>
  <path d="M0.284061 31.6266C0.217621 31.9498 0.155206 32.2749 0.096819 32.6001C-0.56759 36.3147 2.27125 39.7354 6.04529 39.7354H6.0463C8.97271 39.7354 11.4703 37.6355 11.9837 34.7544C12.026 34.5178 12.0713 34.2833 12.1186 34.0487V34.0477C12.1528 33.8796 12.1891 33.7115 12.2263 33.5444C12.8665 30.6814 11.4038 27.77 8.70192 26.6265C5.23391 25.1597 1.27564 27.1852 0.449157 30.8585C0.391776 31.1142 0.336409 31.3699 0.284061 31.6266Z" fill="#919191"/>
</svg>