<svg width="64" height="64" viewBox="0 0 64 64" fill="none" xmlns="http://www.w3.org/2000/svg">
<g id="Crop">
<path id="Shape" d="M16 5C16 4.44772 15.5523 4 15 4C14.4477 4 14 4.44772 14 5V14H5C4.44772 14 4 14.4477 4 15C4 15.5523 4.44772 16 5 16H14V41C14 45.9706 18.0294 50 23 50H48V59C48 59.5523 48.4477 60 49 60C49.5523 60 50 59.5523 50 59V50H59C59.5523 50 60 49.5523 60 49C60 48.4477 59.5523 48 59 48H23C19.134 48 16 44.866 16 41V5ZM41 16H19V14H41C45.9706 14 50 18.0294 50 23V45H48V23C48 19.134 44.866 16 41 16Z" fill="#919191"/>
</g>
</svg>
