<svg width="14" height="14" viewBox="0 0 14 14" fill="none" xmlns="http://www.w3.org/2000/svg">
<g id="Link">
<g id="Shape">
<path d="M8.49999 3H9.49999C11.433 3 13 4.567 13 6.5C13 8.36856 11.5357 9.89513 9.69411 9.99482L9.5023 10L8.5023 10.0046C8.22616 10.0059 8.00127 9.78303 7.99999 9.50689C7.99888 9.26143 8.17481 9.05647 8.40787 9.01306L8.4977 9.0046L9.49999 9C10.8807 9 12 7.88071 12 6.5C12 5.17452 10.9685 4.08996 9.66438 4.00532L9.49999 4H8.49999C8.22386 4 7.99999 3.77614 7.99999 3.5C7.99999 3.25454 8.17687 3.05039 8.41012 3.00806L8.49999 3H9.49999H8.49999ZM4.5 3H5.5C5.77614 3 6 3.22386 6 3.5C6 3.74546 5.82312 3.94961 5.58988 3.99194L5.5 4H4.5C3.11929 4 2 5.11929 2 6.5C2 7.82548 3.03154 8.91004 4.33562 8.99468L4.5 9H5.5C5.77614 9 6 9.22386 6 9.5C6 9.74546 5.82312 9.94961 5.58988 9.99194L5.5 10H4.5C2.567 10 1 8.433 1 6.5C1 4.63144 2.46428 3.10487 4.30796 3.00518L4.5 3H5.5H4.5ZM4.50023 6L9.50023 6.0023C9.77637 6.00242 10.0001 6.22638 10 6.50252C9.99989 6.74798 9.82292 6.95205 9.58965 6.99428L9.49977 7.0023L4.49977 7C4.22363 6.99987 3.99987 6.77591 4 6.49977C4.00011 6.25431 4.17708 6.05024 4.41035 6.00801L4.50023 6Z" fill="#242424"/>
<path d="M8.49999 3H9.49999C11.433 3 13 4.567 13 6.5C13 8.36856 11.5357 9.89513 9.69411 9.99482L9.5023 10L8.5023 10.0046C8.22616 10.0059 8.00127 9.78303 7.99999 9.50689C7.99888 9.26143 8.17481 9.05647 8.40787 9.01306L8.4977 9.0046L9.49999 9C10.8807 9 12 7.88071 12 6.5C12 5.17452 10.9685 4.08996 9.66438 4.00532L9.49999 4H8.49999C8.22386 4 7.99999 3.77614 7.99999 3.5C7.99999 3.25454 8.17687 3.05039 8.41012 3.00806L8.49999 3H9.49999H8.49999ZM4.5 3H5.5C5.77614 3 6 3.22386 6 3.5C6 3.74546 5.82312 3.94961 5.58988 3.99194L5.5 4H4.5C3.11929 4 2 5.11929 2 6.5C2 7.82548 3.03154 8.91004 4.33562 8.99468L4.5 9H5.5C5.77614 9 6 9.22386 6 9.5C6 9.74546 5.82312 9.94961 5.58988 9.99194L5.5 10H4.5C2.567 10 1 8.433 1 6.5C1 4.63144 2.46428 3.10487 4.30796 3.00518L4.5 3H5.5H4.5ZM4.50023 6L9.50023 6.0023C9.77637 6.00242 10.0001 6.22638 10 6.50252C9.99989 6.74798 9.82292 6.95205 9.58965 6.99428L9.49977 7.0023L4.49977 7C4.22363 6.99987 3.99987 6.77591 4 6.49977C4.00011 6.25431 4.17708 6.05024 4.41035 6.00801L4.50023 6Z" fill="#919191"/>
</g>
</g>
</svg>
